<svg xmlns="http://www.w3.org/2000/svg" viewBox="0 0 256 256">
  <defs>
    <linearGradient id="grad" x1="0%" y1="0%" x2="100%" y2="100%">
      <stop offset="0%" style="stop-color:#FF8C5A;stop-opacity:1" />
      <stop offset="100%" style="stop-color:#FF6B35;stop-opacity:1" />
    </linearGradient>
  </defs>
  <rect width="256" height="256" fill="#1A2332" rx="32"/>
  <path d="M40 80 h80 v16 h-64 v32 h56 v16 h-56 v32 h64 v16 h-80 z" fill="url(#grad)"/>
  <path d="M216 96 a48 48 0 0 0-48-48 v16 a32 32 0 0 1 32 32 a32 32 0 0 1-32 32 v16 a32 32 0 0 1 32 32 a32 32 0 0 1-32 32 v16 a48 48 0 0 0 48-48 a48 48 0 0 0-16-35.76 a48 48 0 0 0 16-36.24 z" fill="url(#grad)"/>
  <rect x="36" y="76" width="8" height="8" fill="#1A2332" opacity="0.3"/>
  <rect x="52" y="76" width="8" height="8" fill="#1A2332" opacity="0.3"/>
  <rect x="68" y="76" width="8" height="8" fill="#1A2332" opacity="0.3"/>
  <rect x="36" y="188" width="8" height="8" fill="#1A2332" opacity="0.3"/>
  <rect x="52" y="188" width="8" height="8" fill="#1A2332" opacity="0.3"/>
  <rect x="68" y="188" width="8" height="8" fill="#1A2332" opacity="0.3"/>
</svg>